<?xml version="1.0" encoding="UTF-8" standalone="no"?>
<!DOCTYPE svg PUBLIC "-//W3C//DTD SVG 1.1//EN"
 "http://www.w3.org/Graphics/SVG/1.1/DTD/svg11.dtd">
<!-- Generated by graphviz version 2.38.0 (20140413.2041)
 -->
<!-- Title: %3 Pages: 1 -->
<svg width="1099pt" height="128pt"
 viewBox="0.00 0.00 1099.49 127.96" xmlns="http://www.w3.org/2000/svg" xmlns:xlink="http://www.w3.org/1999/xlink">
<g id="graph0" class="graph" transform="scale(1 1) rotate(0) translate(4 123.958)">
<title>%3</title>
<polygon fill="white" stroke="none" points="-4,4 -4,-123.958 1095.49,-123.958 1095.49,4 -4,4"/>
<!-- QmRCJXG7HSmprrYwDrK1GctXHgbV7EYpVcJPQPwevoQuqF -->
<g id="node1" class="node"><title>QmRCJXG7HSmprrYwDrK1GctXHgbV7EYpVcJPQPwevoQuqF</title>
<polygon fill="none" stroke="black" points="230.563,-96.9578 -0.187806,-96.9578 -0.187806,-60.9578 230.563,-60.9578 230.563,-96.9578"/>
<text text-anchor="middle" x="115.188" y="-76.5578" font-family="Times,serif" font-size="8.00">QmRCJXG7HSmprrYwDrK1GctXHgbV7EYpVcJPQPwevoQuqF</text>
</g>
<!-- QmajFHHivh25Qb2cNbnnnEeUe1gDLHX9ta7hs2XKX1vazb -->
<g id="node2" class="node"><title>QmajFHHivh25Qb2cNbnnnEeUe1gDLHX9ta7hs2XKX1vazb</title>
<polygon fill="none" stroke="black" points="523.592,-119.958 306.771,-119.958 306.771,-83.9578 523.592,-83.9578 523.592,-119.958"/>
<text text-anchor="middle" x="415.182" y="-99.5578" font-family="Times,serif" font-size="8.00">QmajFHHivh25Qb2cNbnnnEeUe1gDLHX9ta7hs2XKX1vazb</text>
</g>
<!-- QmRCJXG7HSmprrYwDrK1GctXHgbV7EYpVcJPQPwevoQuqF&#45;&gt;QmajFHHivh25Qb2cNbnnnEeUe1gDLHX9ta7hs2XKX1vazb -->
<g id="edge1" class="edge"><title>QmRCJXG7HSmprrYwDrK1GctXHgbV7EYpVcJPQPwevoQuqF&#45;&gt;QmajFHHivh25Qb2cNbnnnEeUe1gDLHX9ta7hs2XKX1vazb</title>
<path fill="none" stroke="black" d="M230.548,-87.7844C252.085,-89.4467 274.644,-91.1879 296.287,-92.8584"/>
<polygon fill="black" stroke="black" points="296.254,-96.3661 306.494,-93.6462 296.793,-89.3869 296.254,-96.3661"/>
<text text-anchor="middle" x="267.229" y="-93.7578" font-family="Times,serif" font-size="14.00">cat.jpg</text>
</g>
<!-- QmNtpA5TBNqHrKf3cLQ1AiUKXiE4JmUodbG5gXrajg8wdv -->
<g id="node3" class="node"><title>QmNtpA5TBNqHrKf3cLQ1AiUKXiE4JmUodbG5gXrajg8wdv</title>
<polygon fill="none" stroke="black" points="526.381,-65.9578 303.982,-65.9578 303.982,-29.9578 526.381,-29.9578 526.381,-65.9578"/>
<text text-anchor="middle" x="415.182" y="-45.5578" font-family="Times,serif" font-size="8.00">QmNtpA5TBNqHrKf3cLQ1AiUKXiE4JmUodbG5gXrajg8wdv</text>
</g>
<!-- QmRCJXG7HSmprrYwDrK1GctXHgbV7EYpVcJPQPwevoQuqF&#45;&gt;QmNtpA5TBNqHrKf3cLQ1AiUKXiE4JmUodbG5gXrajg8wdv -->
<g id="edge2" class="edge"><title>QmRCJXG7HSmprrYwDrK1GctXHgbV7EYpVcJPQPwevoQuqF&#45;&gt;QmNtpA5TBNqHrKf3cLQ1AiUKXiE4JmUodbG5gXrajg8wdv</title>
<path fill="none" stroke="black" d="M230.548,-67.0611C251.282,-64.9041 272.964,-62.6485 293.864,-60.4744"/>
<polygon fill="black" stroke="black" points="294.469,-63.9304 304.053,-59.4144 293.745,-56.9679 294.469,-63.9304"/>
<text text-anchor="middle" x="267.229" y="-66.7578" font-family="Times,serif" font-size="14.00">test</text>
</g>
<!-- QmTz3oc4gdpRMKP2sdGUPZTAGRngqjsi99BPoztyP53JMM -->
<g id="node4" class="node"><title>QmTz3oc4gdpRMKP2sdGUPZTAGRngqjsi99BPoztyP53JMM</title>
<polygon fill="none" stroke="black" points="1082.83,-100.958 862.398,-100.958 862.398,-64.9578 1082.83,-64.9578 1082.83,-100.958"/>
<text text-anchor="middle" x="972.613" y="-80.5578" font-family="Times,serif" font-size="8.00">QmTz3oc4gdpRMKP2sdGUPZTAGRngqjsi99BPoztyP53JMM</text>
</g>
<!-- QmNtpA5TBNqHrKf3cLQ1AiUKXiE4JmUodbG5gXrajg8wdv&#45;&gt;QmTz3oc4gdpRMKP2sdGUPZTAGRngqjsi99BPoztyP53JMM -->
<g id="edge3" class="edge"><title>QmNtpA5TBNqHrKf3cLQ1AiUKXiE4JmUodbG5gXrajg8wdv&#45;&gt;QmTz3oc4gdpRMKP2sdGUPZTAGRngqjsi99BPoztyP53JMM</title>
<path fill="none" stroke="black" d="M513.5,-65.9828C535.838,-69.5205 559.539,-72.7998 581.709,-74.9578 691.041,-85.6 718.905,-81.1798 828.74,-82.9578 836.242,-83.0792 843.965,-83.172 851.753,-83.2411"/>
<polygon fill="black" stroke="black" points="851.989,-86.7429 862.015,-83.3188 852.042,-79.7431 851.989,-86.7429"/>
<text text-anchor="middle" x="696.225" y="-84.7578" font-family="Times,serif" font-size="14.00">bar</text>
</g>
<!-- QmX1ebVUtfY11ZCpVmqyE5mDoN62SpLd8eLPpg5GGV1ABt -->
<g id="node5" class="node"><title>QmX1ebVUtfY11ZCpVmqyE5mDoN62SpLd8eLPpg5GGV1ABt</title>
<polygon fill="none" stroke="black" points="810.756,-65.9578 581.693,-65.9578 581.693,-29.9578 810.756,-29.9578 810.756,-65.9578"/>
<text text-anchor="middle" x="696.225" y="-45.5578" font-family="Times,serif" font-size="8.00">QmX1ebVUtfY11ZCpVmqyE5mDoN62SpLd8eLPpg5GGV1ABt</text>
</g>
<!-- QmNtpA5TBNqHrKf3cLQ1AiUKXiE4JmUodbG5gXrajg8wdv&#45;&gt;QmX1ebVUtfY11ZCpVmqyE5mDoN62SpLd8eLPpg5GGV1ABt -->
<g id="edge4" class="edge"><title>QmNtpA5TBNqHrKf3cLQ1AiUKXiE4JmUodbG5gXrajg8wdv&#45;&gt;QmX1ebVUtfY11ZCpVmqyE5mDoN62SpLd8eLPpg5GGV1ABt</title>
<path fill="none" stroke="black" d="M526.467,-47.9578C541.196,-47.9578 556.38,-47.9578 571.323,-47.9578"/>
<polygon fill="black" stroke="black" points="571.62,-51.4579 581.62,-47.9578 571.62,-44.4579 571.62,-51.4579"/>
<text text-anchor="middle" x="553.995" y="-50.7578" font-family="Times,serif" font-size="14.00">baz</text>
</g>
<!-- QmYNmQKp6SuaVrpgWRsPTgCQCnpxUYGq76YEKBXuj2N4H6 -->
<g id="node6" class="node"><title>QmYNmQKp6SuaVrpgWRsPTgCQCnpxUYGq76YEKBXuj2N4H6</title>
<polygon fill="none" stroke="black" points="1091.36,-37.9578 853.867,-37.9578 853.867,-1.95781 1091.36,-1.95781 1091.36,-37.9578"/>
<text text-anchor="middle" x="972.613" y="-17.5578" font-family="Times,serif" font-size="8.00">QmYNmQKp6SuaVrpgWRsPTgCQCnpxUYGq76YEKBXuj2N4H6</text>
</g>
<!-- QmNtpA5TBNqHrKf3cLQ1AiUKXiE4JmUodbG5gXrajg8wdv&#45;&gt;QmYNmQKp6SuaVrpgWRsPTgCQCnpxUYGq76YEKBXuj2N4H6 -->
<g id="edge7" class="edge"><title>QmNtpA5TBNqHrKf3cLQ1AiUKXiE4JmUodbG5gXrajg8wdv&#45;&gt;QmYNmQKp6SuaVrpgWRsPTgCQCnpxUYGq76YEKBXuj2N4H6</title>
<path fill="none" stroke="black" d="M474.14,-29.9358C505.616,-21.0834 545.415,-11.3858 581.709,-6.95781 668.571,3.63959 767.068,0.229124 843.332,-5.74933"/>
<polygon fill="black" stroke="black" points="843.217,-9.25138 853.467,-6.56909 843.782,-2.27417 843.217,-9.25138"/>
<text text-anchor="middle" x="696.225" y="-9.75781" font-family="Times,serif" font-size="14.00">foo</text>
</g>
<!-- QmX1ebVUtfY11ZCpVmqyE5mDoN62SpLd8eLPpg5GGV1ABt&#45;&gt;QmTz3oc4gdpRMKP2sdGUPZTAGRngqjsi99BPoztyP53JMM -->
<g id="edge5" class="edge"><title>QmX1ebVUtfY11ZCpVmqyE5mDoN62SpLd8eLPpg5GGV1ABt&#45;&gt;QmTz3oc4gdpRMKP2sdGUPZTAGRngqjsi99BPoztyP53JMM</title>
<path fill="none" stroke="black" d="M810.81,-62.4463C824.453,-64.1866 838.418,-65.9679 852.142,-67.7184"/>
<polygon fill="black" stroke="black" points="851.722,-71.1931 862.084,-68.9867 852.607,-64.2494 851.722,-71.1931"/>
<text text-anchor="middle" x="832.24" y="-67.7578" font-family="Times,serif" font-size="14.00">b</text>
</g>
<!-- QmX1ebVUtfY11ZCpVmqyE5mDoN62SpLd8eLPpg5GGV1ABt&#45;&gt;QmYNmQKp6SuaVrpgWRsPTgCQCnpxUYGq76YEKBXuj2N4H6 -->
<g id="edge6" class="edge"><title>QmX1ebVUtfY11ZCpVmqyE5mDoN62SpLd8eLPpg5GGV1ABt&#45;&gt;QmYNmQKp6SuaVrpgWRsPTgCQCnpxUYGq76YEKBXuj2N4H6</title>
<path fill="none" stroke="black" d="M810.81,-36.367C821.646,-35.2612 832.685,-34.1347 843.645,-33.0163"/>
<polygon fill="black" stroke="black" points="844.087,-36.4895 853.68,-31.9923 843.377,-29.5256 844.087,-36.4895"/>
<text text-anchor="middle" x="832.24" y="-36.7578" font-family="Times,serif" font-size="14.00">f</text>
</g>
</g>
</svg>
